<svg id="visual" viewBox="0 0 900 600" width="900" height="600" xmlns="http://www.w3.org/2000/svg" xmlns:xlink="http://www.w3.org/1999/xlink" version="1.1"><rect x="0" y="0" width="900" height="600" fill="#ffe970"></rect><defs><linearGradient id="grad1_0" x1="33.3%" y1="0%" x2="100%" y2="100%"><stop offset="20%" stop-color="#ffe970" stop-opacity="1"></stop><stop offset="80%" stop-color="#ffe970" stop-opacity="1"></stop></linearGradient></defs><defs><linearGradient id="grad2_0" x1="0%" y1="0%" x2="66.7%" y2="100%"><stop offset="20%" stop-color="#ffe970" stop-opacity="1"></stop><stop offset="80%" stop-color="#ffe970" stop-opacity="1"></stop></linearGradient></defs><g transform="translate(900, 0)"><path d="M0 486.7C-51.2 444.8 -102.3 402.9 -157.3 379.7C-212.3 356.5 -271 351.9 -323.9 323.9C-376.7 295.8 -423.5 244.2 -449.7 186.3C-475.9 128.4 -481.3 64.2 -486.7 0L0 0Z" fill="#FBAE3C"></path></g><g transform="translate(0, 600)"><path d="M0 -486.7C68.2 -480.5 136.4 -474.2 181.8 -438.8C227.1 -403.5 249.6 -339.1 296.3 -296.3C343 -253.4 413.9 -232.1 449.7 -186.3C485.5 -140.5 486.1 -70.2 486.7 0L0 0Z" fill="#FBAE3C"></path></g></svg>