<svg id="visual" viewBox="0 0 900 600" width="900" height="600" xmlns="http://www.w3.org/2000/svg" xmlns:xlink="http://www.w3.org/1999/xlink" version="1.1"><rect x="0" y="0" width="900" height="600" fill="#ffe970"></rect><defs><linearGradient id="grad1_0" x1="33.3%" y1="0%" x2="100%" y2="100%"><stop offset="20%" stop-color="#ffe970" stop-opacity="1"></stop><stop offset="80%" stop-color="#ffe970" stop-opacity="1"></stop></linearGradient></defs><defs><linearGradient id="grad2_0" x1="0%" y1="0%" x2="66.7%" y2="100%"><stop offset="20%" stop-color="#ffe970" stop-opacity="1"></stop><stop offset="80%" stop-color="#ffe970" stop-opacity="1"></stop></linearGradient></defs><g transform="translate(900, 0)"><path d="M0 486.7C-64.8 482 -129.6 477.3 -186.3 449.7C-242.9 422.1 -291.5 371.6 -318.2 318.2C-344.9 264.8 -349.7 208.5 -374.2 155C-398.6 101.5 -442.7 50.7 -486.7 0L0 0Z" fill="#ffb11b"></path></g><g transform="translate(0, 600)"><path d="M0 -486.7C49.9 -439.2 99.8 -391.7 151.5 -365.9C203.3 -340 256.9 -335.7 311.1 -311.1C365.4 -286.5 420.3 -241.5 449.7 -186.3C479.1 -131 482.9 -65.5 486.7 0L0 0Z" fill="#ffb11b"></path></g></svg>